<mxfile host="app.diagrams.net" modified="2021-07-14T19:25:32.245Z" agent="5.0 (Macintosh; Intel Mac OS X 10_15_7) AppleWebKit/605.1.15 (KHTML, like Gecko) Version/14.1.1 Safari/605.1.15" etag="DyEmIE4pQu27iAPbi4J-" version="14.8.6" type="github">
  <diagram id="ZoNWrH1f9fPfKucFPw9K" name="Page-1">
    <mxGraphModel dx="1426" dy="842" grid="1" gridSize="10" guides="1" tooltips="1" connect="1" arrows="1" fold="1" page="1" pageScale="1" pageWidth="827" pageHeight="1169" math="0" shadow="0">
      <root>
        <mxCell id="0" />
        <mxCell id="1" parent="0" />
        <mxCell id="lAZlLPdiTVYZQoPmJP2H-1" value="Users" style="shape=table;startSize=30;container=1;collapsible=1;childLayout=tableLayout;fixedRows=1;rowLines=0;fontStyle=1;align=center;resizeLast=1;" vertex="1" parent="1">
          <mxGeometry x="130" y="100" width="200" height="150" as="geometry" />
        </mxCell>
        <mxCell id="lAZlLPdiTVYZQoPmJP2H-2" value="" style="shape=partialRectangle;collapsible=0;dropTarget=0;pointerEvents=0;fillColor=none;top=0;left=0;bottom=1;right=0;points=[[0,0.5],[1,0.5]];portConstraint=eastwest;" vertex="1" parent="lAZlLPdiTVYZQoPmJP2H-1">
          <mxGeometry y="30" width="200" height="30" as="geometry" />
        </mxCell>
        <mxCell id="lAZlLPdiTVYZQoPmJP2H-3" value="PK" style="shape=partialRectangle;connectable=0;fillColor=none;top=0;left=0;bottom=0;right=0;fontStyle=1;overflow=hidden;" vertex="1" parent="lAZlLPdiTVYZQoPmJP2H-2">
          <mxGeometry width="30" height="30" as="geometry" />
        </mxCell>
        <mxCell id="lAZlLPdiTVYZQoPmJP2H-4" value="id" style="shape=partialRectangle;connectable=0;fillColor=none;top=0;left=0;bottom=0;right=0;align=left;spacingLeft=6;fontStyle=5;overflow=hidden;" vertex="1" parent="lAZlLPdiTVYZQoPmJP2H-2">
          <mxGeometry x="30" width="170" height="30" as="geometry" />
        </mxCell>
        <mxCell id="lAZlLPdiTVYZQoPmJP2H-5" value="" style="shape=partialRectangle;collapsible=0;dropTarget=0;pointerEvents=0;fillColor=none;top=0;left=0;bottom=0;right=0;points=[[0,0.5],[1,0.5]];portConstraint=eastwest;" vertex="1" parent="lAZlLPdiTVYZQoPmJP2H-1">
          <mxGeometry y="60" width="200" height="30" as="geometry" />
        </mxCell>
        <mxCell id="lAZlLPdiTVYZQoPmJP2H-6" value="" style="shape=partialRectangle;connectable=0;fillColor=none;top=0;left=0;bottom=0;right=0;editable=1;overflow=hidden;" vertex="1" parent="lAZlLPdiTVYZQoPmJP2H-5">
          <mxGeometry width="30" height="30" as="geometry" />
        </mxCell>
        <mxCell id="lAZlLPdiTVYZQoPmJP2H-7" value="(framework-generated fields)" style="shape=partialRectangle;connectable=0;fillColor=none;top=0;left=0;bottom=0;right=0;align=left;spacingLeft=6;overflow=hidden;" vertex="1" parent="lAZlLPdiTVYZQoPmJP2H-5">
          <mxGeometry x="30" width="170" height="30" as="geometry" />
        </mxCell>
        <mxCell id="lAZlLPdiTVYZQoPmJP2H-8" value="" style="shape=partialRectangle;collapsible=0;dropTarget=0;pointerEvents=0;fillColor=none;top=0;left=0;bottom=0;right=0;points=[[0,0.5],[1,0.5]];portConstraint=eastwest;" vertex="1" parent="lAZlLPdiTVYZQoPmJP2H-1">
          <mxGeometry y="90" width="200" height="30" as="geometry" />
        </mxCell>
        <mxCell id="lAZlLPdiTVYZQoPmJP2H-9" value="" style="shape=partialRectangle;connectable=0;fillColor=none;top=0;left=0;bottom=0;right=0;editable=1;overflow=hidden;" vertex="1" parent="lAZlLPdiTVYZQoPmJP2H-8">
          <mxGeometry width="30" height="30" as="geometry" />
        </mxCell>
        <mxCell id="lAZlLPdiTVYZQoPmJP2H-10" value="" style="shape=partialRectangle;connectable=0;fillColor=none;top=0;left=0;bottom=0;right=0;align=left;spacingLeft=6;overflow=hidden;" vertex="1" parent="lAZlLPdiTVYZQoPmJP2H-8">
          <mxGeometry x="30" width="170" height="30" as="geometry" />
        </mxCell>
        <mxCell id="lAZlLPdiTVYZQoPmJP2H-11" value="" style="shape=partialRectangle;collapsible=0;dropTarget=0;pointerEvents=0;fillColor=none;top=0;left=0;bottom=0;right=0;points=[[0,0.5],[1,0.5]];portConstraint=eastwest;" vertex="1" parent="lAZlLPdiTVYZQoPmJP2H-1">
          <mxGeometry y="120" width="200" height="30" as="geometry" />
        </mxCell>
        <mxCell id="lAZlLPdiTVYZQoPmJP2H-12" value="" style="shape=partialRectangle;connectable=0;fillColor=none;top=0;left=0;bottom=0;right=0;editable=1;overflow=hidden;" vertex="1" parent="lAZlLPdiTVYZQoPmJP2H-11">
          <mxGeometry width="30" height="30" as="geometry" />
        </mxCell>
        <mxCell id="lAZlLPdiTVYZQoPmJP2H-13" value="" style="shape=partialRectangle;connectable=0;fillColor=none;top=0;left=0;bottom=0;right=0;align=left;spacingLeft=6;overflow=hidden;" vertex="1" parent="lAZlLPdiTVYZQoPmJP2H-11">
          <mxGeometry x="30" width="170" height="30" as="geometry" />
        </mxCell>
        <mxCell id="lAZlLPdiTVYZQoPmJP2H-14" value="Games" style="shape=table;startSize=30;container=1;collapsible=1;childLayout=tableLayout;fixedRows=1;rowLines=0;fontStyle=1;align=center;resizeLast=1;" vertex="1" parent="1">
          <mxGeometry x="540" y="310" width="180" height="190" as="geometry" />
        </mxCell>
        <mxCell id="lAZlLPdiTVYZQoPmJP2H-15" value="" style="shape=partialRectangle;collapsible=0;dropTarget=0;pointerEvents=0;fillColor=none;top=0;left=0;bottom=1;right=0;points=[[0,0.5],[1,0.5]];portConstraint=eastwest;" vertex="1" parent="lAZlLPdiTVYZQoPmJP2H-14">
          <mxGeometry y="30" width="180" height="30" as="geometry" />
        </mxCell>
        <mxCell id="lAZlLPdiTVYZQoPmJP2H-16" value="PK" style="shape=partialRectangle;connectable=0;fillColor=none;top=0;left=0;bottom=0;right=0;fontStyle=1;overflow=hidden;" vertex="1" parent="lAZlLPdiTVYZQoPmJP2H-15">
          <mxGeometry width="30" height="30" as="geometry" />
        </mxCell>
        <mxCell id="lAZlLPdiTVYZQoPmJP2H-17" value="GameId" style="shape=partialRectangle;connectable=0;fillColor=none;top=0;left=0;bottom=0;right=0;align=left;spacingLeft=6;fontStyle=5;overflow=hidden;" vertex="1" parent="lAZlLPdiTVYZQoPmJP2H-15">
          <mxGeometry x="30" width="150" height="30" as="geometry" />
        </mxCell>
        <mxCell id="lAZlLPdiTVYZQoPmJP2H-18" value="" style="shape=partialRectangle;collapsible=0;dropTarget=0;pointerEvents=0;fillColor=none;top=0;left=0;bottom=0;right=0;points=[[0,0.5],[1,0.5]];portConstraint=eastwest;" vertex="1" parent="lAZlLPdiTVYZQoPmJP2H-14">
          <mxGeometry y="60" width="180" height="30" as="geometry" />
        </mxCell>
        <mxCell id="lAZlLPdiTVYZQoPmJP2H-19" value="" style="shape=partialRectangle;connectable=0;fillColor=none;top=0;left=0;bottom=0;right=0;editable=1;overflow=hidden;" vertex="1" parent="lAZlLPdiTVYZQoPmJP2H-18">
          <mxGeometry width="30" height="30" as="geometry" />
        </mxCell>
        <mxCell id="lAZlLPdiTVYZQoPmJP2H-20" value="Name" style="shape=partialRectangle;connectable=0;fillColor=none;top=0;left=0;bottom=0;right=0;align=left;spacingLeft=6;overflow=hidden;" vertex="1" parent="lAZlLPdiTVYZQoPmJP2H-18">
          <mxGeometry x="30" width="150" height="30" as="geometry" />
        </mxCell>
        <mxCell id="lAZlLPdiTVYZQoPmJP2H-21" value="" style="shape=partialRectangle;collapsible=0;dropTarget=0;pointerEvents=0;fillColor=none;top=0;left=0;bottom=0;right=0;points=[[0,0.5],[1,0.5]];portConstraint=eastwest;" vertex="1" parent="lAZlLPdiTVYZQoPmJP2H-14">
          <mxGeometry y="90" width="180" height="30" as="geometry" />
        </mxCell>
        <mxCell id="lAZlLPdiTVYZQoPmJP2H-22" value="" style="shape=partialRectangle;connectable=0;fillColor=none;top=0;left=0;bottom=0;right=0;editable=1;overflow=hidden;" vertex="1" parent="lAZlLPdiTVYZQoPmJP2H-21">
          <mxGeometry width="30" height="30" as="geometry" />
        </mxCell>
        <mxCell id="lAZlLPdiTVYZQoPmJP2H-23" value="Price" style="shape=partialRectangle;connectable=0;fillColor=none;top=0;left=0;bottom=0;right=0;align=left;spacingLeft=6;overflow=hidden;" vertex="1" parent="lAZlLPdiTVYZQoPmJP2H-21">
          <mxGeometry x="30" width="150" height="30" as="geometry" />
        </mxCell>
        <mxCell id="lAZlLPdiTVYZQoPmJP2H-24" value="" style="shape=partialRectangle;collapsible=0;dropTarget=0;pointerEvents=0;fillColor=none;top=0;left=0;bottom=0;right=0;points=[[0,0.5],[1,0.5]];portConstraint=eastwest;" vertex="1" parent="lAZlLPdiTVYZQoPmJP2H-14">
          <mxGeometry y="120" width="180" height="30" as="geometry" />
        </mxCell>
        <mxCell id="lAZlLPdiTVYZQoPmJP2H-25" value="" style="shape=partialRectangle;connectable=0;fillColor=none;top=0;left=0;bottom=0;right=0;editable=1;overflow=hidden;" vertex="1" parent="lAZlLPdiTVYZQoPmJP2H-24">
          <mxGeometry width="30" height="30" as="geometry" />
        </mxCell>
        <mxCell id="lAZlLPdiTVYZQoPmJP2H-26" value="Description" style="shape=partialRectangle;connectable=0;fillColor=none;top=0;left=0;bottom=0;right=0;align=left;spacingLeft=6;overflow=hidden;" vertex="1" parent="lAZlLPdiTVYZQoPmJP2H-24">
          <mxGeometry x="30" width="150" height="30" as="geometry" />
        </mxCell>
        <mxCell id="lAZlLPdiTVYZQoPmJP2H-27" value="" style="shape=partialRectangle;collapsible=0;dropTarget=0;pointerEvents=0;fillColor=none;top=0;left=0;bottom=0;right=0;points=[[0,0.5],[1,0.5]];portConstraint=eastwest;" vertex="1" parent="lAZlLPdiTVYZQoPmJP2H-14">
          <mxGeometry y="150" width="180" height="30" as="geometry" />
        </mxCell>
        <mxCell id="lAZlLPdiTVYZQoPmJP2H-28" value="" style="shape=partialRectangle;connectable=0;fillColor=none;top=0;left=0;bottom=0;right=0;editable=1;overflow=hidden;" vertex="1" parent="lAZlLPdiTVYZQoPmJP2H-27">
          <mxGeometry width="30" height="30" as="geometry" />
        </mxCell>
        <mxCell id="lAZlLPdiTVYZQoPmJP2H-29" value="Platform (category)" style="shape=partialRectangle;connectable=0;fillColor=none;top=0;left=0;bottom=0;right=0;align=left;spacingLeft=6;overflow=hidden;" vertex="1" parent="lAZlLPdiTVYZQoPmJP2H-27">
          <mxGeometry x="30" width="150" height="30" as="geometry" />
        </mxCell>
        <mxCell id="lAZlLPdiTVYZQoPmJP2H-30" value="ShoppingCartEntries" style="shape=table;startSize=30;container=1;collapsible=1;childLayout=tableLayout;fixedRows=1;rowLines=0;fontStyle=1;align=center;resizeLast=1;" vertex="1" parent="1">
          <mxGeometry x="480" y="80" width="180" height="120" as="geometry" />
        </mxCell>
        <mxCell id="lAZlLPdiTVYZQoPmJP2H-31" value="" style="shape=partialRectangle;collapsible=0;dropTarget=0;pointerEvents=0;fillColor=none;top=0;left=0;bottom=1;right=0;points=[[0,0.5],[1,0.5]];portConstraint=eastwest;" vertex="1" parent="lAZlLPdiTVYZQoPmJP2H-30">
          <mxGeometry y="30" width="180" height="30" as="geometry" />
        </mxCell>
        <mxCell id="lAZlLPdiTVYZQoPmJP2H-32" value="FK1" style="shape=partialRectangle;connectable=0;fillColor=none;top=0;left=0;bottom=0;right=0;fontStyle=1;overflow=hidden;" vertex="1" parent="lAZlLPdiTVYZQoPmJP2H-31">
          <mxGeometry width="30" height="30" as="geometry" />
        </mxCell>
        <mxCell id="lAZlLPdiTVYZQoPmJP2H-33" value="GameId" style="shape=partialRectangle;connectable=0;fillColor=none;top=0;left=0;bottom=0;right=0;align=left;spacingLeft=6;fontStyle=5;overflow=hidden;" vertex="1" parent="lAZlLPdiTVYZQoPmJP2H-31">
          <mxGeometry x="30" width="150" height="30" as="geometry" />
        </mxCell>
        <mxCell id="lAZlLPdiTVYZQoPmJP2H-43" value="" style="shape=partialRectangle;collapsible=0;dropTarget=0;pointerEvents=0;fillColor=none;top=0;left=0;bottom=1;right=0;points=[[0,0.5],[1,0.5]];portConstraint=eastwest;" vertex="1" parent="lAZlLPdiTVYZQoPmJP2H-30">
          <mxGeometry y="60" width="180" height="30" as="geometry" />
        </mxCell>
        <mxCell id="lAZlLPdiTVYZQoPmJP2H-44" value="FK2" style="shape=partialRectangle;connectable=0;fillColor=none;top=0;left=0;bottom=0;right=0;fontStyle=1;overflow=hidden;" vertex="1" parent="lAZlLPdiTVYZQoPmJP2H-43">
          <mxGeometry width="30" height="30" as="geometry" />
        </mxCell>
        <mxCell id="lAZlLPdiTVYZQoPmJP2H-45" value="UserId" style="shape=partialRectangle;connectable=0;fillColor=none;top=0;left=0;bottom=0;right=0;align=left;spacingLeft=6;fontStyle=5;overflow=hidden;" vertex="1" parent="lAZlLPdiTVYZQoPmJP2H-43">
          <mxGeometry x="30" width="150" height="30" as="geometry" />
        </mxCell>
        <mxCell id="lAZlLPdiTVYZQoPmJP2H-34" value="" style="shape=partialRectangle;collapsible=0;dropTarget=0;pointerEvents=0;fillColor=none;top=0;left=0;bottom=0;right=0;points=[[0,0.5],[1,0.5]];portConstraint=eastwest;" vertex="1" parent="lAZlLPdiTVYZQoPmJP2H-30">
          <mxGeometry y="90" width="180" height="30" as="geometry" />
        </mxCell>
        <mxCell id="lAZlLPdiTVYZQoPmJP2H-35" value="" style="shape=partialRectangle;connectable=0;fillColor=none;top=0;left=0;bottom=0;right=0;editable=1;overflow=hidden;" vertex="1" parent="lAZlLPdiTVYZQoPmJP2H-34">
          <mxGeometry width="30" height="30" as="geometry" />
        </mxCell>
        <mxCell id="lAZlLPdiTVYZQoPmJP2H-36" value="Quantity" style="shape=partialRectangle;connectable=0;fillColor=none;top=0;left=0;bottom=0;right=0;align=left;spacingLeft=6;overflow=hidden;" vertex="1" parent="lAZlLPdiTVYZQoPmJP2H-34">
          <mxGeometry x="30" width="150" height="30" as="geometry" />
        </mxCell>
        <mxCell id="lAZlLPdiTVYZQoPmJP2H-46" value="Reviews" style="shape=table;startSize=30;container=1;collapsible=1;childLayout=tableLayout;fixedRows=1;rowLines=0;fontStyle=1;align=center;resizeLast=1;" vertex="1" parent="1">
          <mxGeometry x="120" y="370" width="180" height="160" as="geometry" />
        </mxCell>
        <mxCell id="lAZlLPdiTVYZQoPmJP2H-47" value="" style="shape=partialRectangle;collapsible=0;dropTarget=0;pointerEvents=0;fillColor=none;top=0;left=0;bottom=1;right=0;points=[[0,0.5],[1,0.5]];portConstraint=eastwest;" vertex="1" parent="lAZlLPdiTVYZQoPmJP2H-46">
          <mxGeometry y="30" width="180" height="30" as="geometry" />
        </mxCell>
        <mxCell id="lAZlLPdiTVYZQoPmJP2H-48" value="FK1" style="shape=partialRectangle;connectable=0;fillColor=none;top=0;left=0;bottom=0;right=0;fontStyle=1;overflow=hidden;" vertex="1" parent="lAZlLPdiTVYZQoPmJP2H-47">
          <mxGeometry width="30" height="30" as="geometry" />
        </mxCell>
        <mxCell id="lAZlLPdiTVYZQoPmJP2H-49" value="GameId" style="shape=partialRectangle;connectable=0;fillColor=none;top=0;left=0;bottom=0;right=0;align=left;spacingLeft=6;fontStyle=5;overflow=hidden;" vertex="1" parent="lAZlLPdiTVYZQoPmJP2H-47">
          <mxGeometry x="30" width="150" height="30" as="geometry" />
        </mxCell>
        <mxCell id="lAZlLPdiTVYZQoPmJP2H-79" value="" style="shape=partialRectangle;collapsible=0;dropTarget=0;pointerEvents=0;fillColor=none;top=0;left=0;bottom=1;right=0;points=[[0,0.5],[1,0.5]];portConstraint=eastwest;" vertex="1" parent="lAZlLPdiTVYZQoPmJP2H-46">
          <mxGeometry y="60" width="180" height="30" as="geometry" />
        </mxCell>
        <mxCell id="lAZlLPdiTVYZQoPmJP2H-80" value="FK2" style="shape=partialRectangle;connectable=0;fillColor=none;top=0;left=0;bottom=0;right=0;fontStyle=1;overflow=hidden;" vertex="1" parent="lAZlLPdiTVYZQoPmJP2H-79">
          <mxGeometry width="30" height="30" as="geometry" />
        </mxCell>
        <mxCell id="lAZlLPdiTVYZQoPmJP2H-81" value="UserId" style="shape=partialRectangle;connectable=0;fillColor=none;top=0;left=0;bottom=0;right=0;align=left;spacingLeft=6;fontStyle=5;overflow=hidden;" vertex="1" parent="lAZlLPdiTVYZQoPmJP2H-79">
          <mxGeometry x="30" width="150" height="30" as="geometry" />
        </mxCell>
        <mxCell id="lAZlLPdiTVYZQoPmJP2H-56" value="" style="shape=partialRectangle;collapsible=0;dropTarget=0;pointerEvents=0;fillColor=none;top=0;left=0;bottom=0;right=0;points=[[0,0.5],[1,0.5]];portConstraint=eastwest;" vertex="1" parent="lAZlLPdiTVYZQoPmJP2H-46">
          <mxGeometry y="90" width="180" height="30" as="geometry" />
        </mxCell>
        <mxCell id="lAZlLPdiTVYZQoPmJP2H-57" value="" style="shape=partialRectangle;connectable=0;fillColor=none;top=0;left=0;bottom=0;right=0;editable=1;overflow=hidden;" vertex="1" parent="lAZlLPdiTVYZQoPmJP2H-56">
          <mxGeometry width="30" height="30" as="geometry" />
        </mxCell>
        <mxCell id="lAZlLPdiTVYZQoPmJP2H-58" value="Rating (1-5)" style="shape=partialRectangle;connectable=0;fillColor=none;top=0;left=0;bottom=0;right=0;align=left;spacingLeft=6;overflow=hidden;" vertex="1" parent="lAZlLPdiTVYZQoPmJP2H-56">
          <mxGeometry x="30" width="150" height="30" as="geometry" />
        </mxCell>
        <mxCell id="lAZlLPdiTVYZQoPmJP2H-63" value="" style="shape=partialRectangle;collapsible=0;dropTarget=0;pointerEvents=0;fillColor=none;top=0;left=0;bottom=0;right=0;points=[[0,0.5],[1,0.5]];portConstraint=eastwest;" vertex="1" parent="lAZlLPdiTVYZQoPmJP2H-46">
          <mxGeometry y="120" width="180" height="30" as="geometry" />
        </mxCell>
        <mxCell id="lAZlLPdiTVYZQoPmJP2H-64" value="" style="shape=partialRectangle;connectable=0;fillColor=none;top=0;left=0;bottom=0;right=0;fontStyle=0;overflow=hidden;" vertex="1" parent="lAZlLPdiTVYZQoPmJP2H-63">
          <mxGeometry width="30" height="30" as="geometry" />
        </mxCell>
        <mxCell id="lAZlLPdiTVYZQoPmJP2H-65" value="Review/Comment" style="shape=partialRectangle;connectable=0;fillColor=none;top=0;left=0;bottom=0;right=0;align=left;spacingLeft=6;fontStyle=0;overflow=hidden;" vertex="1" parent="lAZlLPdiTVYZQoPmJP2H-63">
          <mxGeometry x="30" width="150" height="30" as="geometry" />
        </mxCell>
        <mxCell id="lAZlLPdiTVYZQoPmJP2H-70" value="" style="edgeStyle=entityRelationEdgeStyle;fontSize=12;html=1;endArrow=ERoneToMany;startArrow=ERoneToMany;entryX=0;entryY=0.5;entryDx=0;entryDy=0;exitX=1;exitY=0.5;exitDx=0;exitDy=0;" edge="1" parent="1" source="lAZlLPdiTVYZQoPmJP2H-2" target="lAZlLPdiTVYZQoPmJP2H-43">
          <mxGeometry width="100" height="100" relative="1" as="geometry">
            <mxPoint x="320" y="120" as="sourcePoint" />
            <mxPoint x="420" y="20" as="targetPoint" />
          </mxGeometry>
        </mxCell>
        <mxCell id="lAZlLPdiTVYZQoPmJP2H-71" value="" style="edgeStyle=entityRelationEdgeStyle;fontSize=12;html=1;endArrow=ERmany;startArrow=ERmany;exitX=1;exitY=0.5;exitDx=0;exitDy=0;" edge="1" parent="1" source="lAZlLPdiTVYZQoPmJP2H-31" target="lAZlLPdiTVYZQoPmJP2H-15">
          <mxGeometry width="100" height="100" relative="1" as="geometry">
            <mxPoint x="320" y="370" as="sourcePoint" />
            <mxPoint x="750" y="200" as="targetPoint" />
          </mxGeometry>
        </mxCell>
        <mxCell id="lAZlLPdiTVYZQoPmJP2H-72" value="" style="edgeStyle=entityRelationEdgeStyle;fontSize=12;html=1;endArrow=ERmany;exitX=0;exitY=0.5;exitDx=0;exitDy=0;entryX=1;entryY=0.5;entryDx=0;entryDy=0;" edge="1" parent="1" source="lAZlLPdiTVYZQoPmJP2H-15" target="lAZlLPdiTVYZQoPmJP2H-47">
          <mxGeometry width="100" height="100" relative="1" as="geometry">
            <mxPoint x="390" y="360" as="sourcePoint" />
            <mxPoint x="490" y="260" as="targetPoint" />
          </mxGeometry>
        </mxCell>
        <mxCell id="lAZlLPdiTVYZQoPmJP2H-77" value="" style="edgeStyle=entityRelationEdgeStyle;fontSize=12;html=1;endArrow=ERmandOne;startArrow=ERmandOne;entryX=0;entryY=0.5;entryDx=0;entryDy=0;exitX=0;exitY=0.5;exitDx=0;exitDy=0;strokeColor=none;" edge="1" parent="1" source="lAZlLPdiTVYZQoPmJP2H-2">
          <mxGeometry width="100" height="100" relative="1" as="geometry">
            <mxPoint x="70" y="520" as="sourcePoint" />
            <mxPoint x="120" y="485" as="targetPoint" />
          </mxGeometry>
        </mxCell>
        <mxCell id="lAZlLPdiTVYZQoPmJP2H-83" value="" style="edgeStyle=orthogonalEdgeStyle;fontSize=12;html=1;endArrow=ERmandOne;startArrow=ERmandOne;entryX=0;entryY=0.5;entryDx=0;entryDy=0;exitX=0;exitY=0.5;exitDx=0;exitDy=0;" edge="1" parent="1" source="lAZlLPdiTVYZQoPmJP2H-2" target="lAZlLPdiTVYZQoPmJP2H-79">
          <mxGeometry width="100" height="100" relative="1" as="geometry">
            <mxPoint x="40" y="560" as="sourcePoint" />
            <mxPoint x="140" y="460" as="targetPoint" />
          </mxGeometry>
        </mxCell>
      </root>
    </mxGraphModel>
  </diagram>
</mxfile>
